# xmcd
#
# Track frame offsets:
#	150
#	8548
#	17730
#	30075
#	41986
#	54001
#	70008
#	87248
#	101931
#	114376
#	126185
#	140721
#	151629
#	164543
#	176285
#	189201
#	206268
#	215108
#	228375
#	247061
#
# Disc length: 3429
#
# Revision: 4
# Processed by: cddbd v1.5.1PL0 Copyright (c) Steve Scherf et al.
# Submitted via: CDex 1.51
# Normalized: r3:TDELIM( - )
#
DISCID=010d6314
DTITLE=Various Artist - Very Best Of Country and Western
DYEAR=2002
DGENRE=Country
TTITLE0=Western Themes - Bonanza Theme
TTITLE1=Frankie Laine - Rawhide
TTITLE2=Johnny Cash - I Walk The Line
TTITLE3=Donna Fargo - U.S. Of A.
TTITLE4=Wanda Jackson - Stand By Your Man
TTITLE5=Billie Jo Spears - Blanket On The Ground
TTITLE6=Kenny Rogers - Lady
TTITLE7=Glen Campbell - Rhinestone Cowboy
TTITLE8=Bobby Bare - 500 Miles Away From Home
TTITLE9=Tennessee Ernie Ford - Sixteen Tons
TTITLE10=Jeannie C. Riley - Harper Valley P.T.A.
TTITLE11=Roger Miller - King Of The Road
TTITLE12=Charlie Rich - The Most Beautiful Girl In The World
TTITLE13=Donna Fargo - The Happiest Girl In The Whole USA
TTITLE14=Billie Jo Spears - 57 Chevrolet
TTITLE15=Tanya Tucker - Love Me Like You Used To Do
TTITLE16=Wanda Jackson - Jambalaya (On The Bayou)
TTITLE17=Glen Campbell - Gentle On My Mind
TTITLE18=Juice Newton - Angel Of The Morning
TTITLE19=Western Themes - High Chaparral Theme
EXTD=YEAR: 2002
EXTT0=
EXTT1=
EXTT2=
EXTT3=
EXTT4=
EXTT5=
EXTT6=
EXTT7=
EXTT8=
EXTT9=
EXTT10=
EXTT11=
EXTT12=
EXTT13=
EXTT14=
EXTT15=
EXTT16=
EXTT17=
EXTT18=
EXTT19=
PLAYORDER=
